<?xml version="1.0" encoding="UTF-8" standalone="no"?>
<!-- Created with Inkscape (http://www.inkscape.org/) -->

<svg
   xmlns:dc="http://purl.org/dc/elements/1.1/"
   xmlns:cc="http://creativecommons.org/ns#"
   xmlns:rdf="http://www.w3.org/1999/02/22-rdf-syntax-ns#"
   xmlns:svg="http://www.w3.org/2000/svg"
   xmlns="http://www.w3.org/2000/svg"
   xmlns:sodipodi="http://sodipodi.sourceforge.net/DTD/sodipodi-0.dtd"
   xmlns:inkscape="http://www.inkscape.org/namespaces/inkscape"
   id="svg2"
   version="1.1"
   inkscape:version="0.48.4 r9939"
   width="400"
   height="400"
   sodipodi:docname="20131231-1.png">
  <metadata
     id="metadata8">
    <rdf:RDF>
      <cc:Work
         rdf:about="">
        <dc:format>image/svg+xml</dc:format>
        <dc:type
           rdf:resource="http://purl.org/dc/dcmitype/StillImage" />
        <dc:title></dc:title>
      </cc:Work>
    </rdf:RDF>
  </metadata>
  <defs
     id="defs6" />
  <sodipodi:namedview
     pagecolor="#ffffff"
     bordercolor="#666666"
     borderopacity="1"
     objecttolerance="10"
     gridtolerance="10"
     guidetolerance="10"
     inkscape:pageopacity="0"
     inkscape:pageshadow="2"
     inkscape:window-width="400"
     inkscape:window-height="400"
     id="namedview4"
     showgrid="false"
     inkscape:zoom="0.59"
     inkscape:cx="-61.864407"
     inkscape:cy="200"
     inkscape:window-x="-4"
     inkscape:window-y="-4"
     inkscape:window-maximized="1"
     inkscape:current-layer="svg2" />
  <path
     style="fill:#000000"
     d="M 84,353.96705 C 49.454218,352.38223 36.304334,349.46646 33.598108,342.79129 31.837436,338.44842 30.375114,79.78862 32.076598,73.662261 33.636733,68.044843 37.866007,66.574018 58.5,64.472929 c 13.356288,-1.360025 30.227986,-1.835849 78.71612,-2.21999 62.86921,-0.498073 91.50652,0.341613 109.17041,3.201028 9.4325,1.526927 9.38955,1.509334 15.23299,6.238878 l 4.11952,3.334244 0.4665,10.489145 c 0.25658,5.76903 0.66995,10.692589 0.9186,10.941241 0.24865,0.248653 3.80994,-0.419845 7.91398,-1.485552 11.88842,-3.087099 25.62026,-2.716564 37.19992,1.00379 31.83515,10.228107 52.81712,37.111127 61.17443,78.379367 2.29391,11.32731 2.58753,15.15191 2.58753,33.70452 0,18.40866 -0.31045,22.51949 -2.57947,34.15644 -7.6294,39.12831 -22.09355,62.95664 -45.76686,75.39661 -3.79343,1.99339 -9.42986,4.22999 -12.52541,4.97023 -8.69876,2.08012 -24.39446,1.79085 -33.19589,-0.6118 -10.381,-2.83385 -13.58726,-3.3385 -14.2631,-2.24497 -0.32174,0.52059 -0.8938,5.72313 -1.27124,11.56119 -0.63752,9.8609 -0.88289,10.80304 -3.45532,13.26759 -4.1648,3.99013 -17.54993,6.32024 -48.94271,8.52002 -19.99867,1.40137 -106.03031,1.99177 -130,0.89214 z m 120.5,-2.99855 c 10.45,-0.58552 24.625,-1.68669 31.5,-2.44704 25.98379,-2.87372 27.04023,-3.56794 27.74517,-18.23204 C 264.22723,320.26145 265.67055,316 268.58488,316 c 0.84633,0 5.44845,1.09025 10.22695,2.42277 12.2162,3.4066 24.90662,4.15936 33.7442,2.00162 29.30981,-7.15612 49.18309,-33.56012 57.98741,-77.04313 C 372.7319,232.57283 373,228.72314 373,208.10737 c 0,-20.75764 -0.2503,-24.2984 -2.42993,-34.37435 -1.33647,-6.17816 -3.64226,-14.60802 -5.124,-18.73302 -2.81402,-7.83398 -7.11841,-17 -7.98324,-17 -0.27691,0 0.45685,1.88239 1.63057,4.18308 3.51396,6.88794 6.59633,15.98567 7.307,21.56692 0.57088,4.48342 0.4274,5.25 -0.98259,5.25 -1.14523,0 -1.49468,-0.59806 -1.1406,-1.95205 0.28076,-1.07363 0.0908,-2.09194 -0.4221,-2.26291 -0.51291,-0.17097 -1.7538,-3.45505 -2.75752,-7.29795 -2.42255,-9.27509 -11.72997,-26.55179 -18.90922,-35.09983 -7.5058,-8.93685 -21.41605,-18.50153 -30.87795,-21.23165 -10.49346,-3.027776 -19.8128,-3.530999 -30.16367,-1.628771 l -8.92742,1.640631 1.35471,5.66627 c 0.7451,3.11644 1.37075,8.52538 1.39034,12.01985 l 0.0356,6.35359 3.5278,-3.09745 C 284.61181,116.7679 289.17458,115 296.87726,115 c 9.26938,0 19.06999,4.06047 15.34992,6.3596 -0.42505,0.26269 -3.68755,-0.19682 -7.25,-1.02114 -5.95463,-1.37785 -6.96124,-1.35479 -12.47718,0.28586 -4.86096,1.44583 -7.09158,2.88968 -11.75,7.60563 -3.1625,3.20155 -5.75,6.25954 -5.75,6.79553 0,0.53599 -0.61383,0.97452 -1.36408,0.97452 -1.58524,0 -2.64237,-6.20211 -2.6231,-15.38957 0.0176,-8.40565 -2.85312,-20.33541 -5.03049,-20.9048 -1.41551,-0.370165 -1.77325,-2.26992 -2.22595,-11.821067 -0.50326,-10.617761 -0.70418,-11.503053 -2.99955,-13.216796 -1.59318,-1.189481 -4.53878,-1.931463 -8.3585,-2.105463 C 249.15425,72.414525 237.275,71.457251 226,70.435027 188.80339,67.062678 92.78269,67.98341 49.611949,72.126394 c -8.831927,0.847577 -11.04296,0.79425 -11.708359,-0.282389 -0.670314,-1.084591 -1.056486,-1.09113 -2.111949,-0.03576 -1.940046,1.939873 -2.414095,262.044195 -0.488,267.759065 1.957197,5.80716 7.307307,8.0508 23.922914,10.03241 C 85.917587,352.78294 159.7082,353.47821 204.5,350.9685 z M 124,348 l 8.5,-0.62739 -8.41667,-0.18631 c -18.26786,-0.40436 -5.49125,-1.23056 33.9985,-2.19853 54.47852,-1.33538 89.28273,-4.57782 96.40826,-8.98164 4.40686,-2.72359 5.50991,-2.52924 5.50991,0.97082 0,2.02987 -0.75533,3.47185 -2.37423,4.5326 C 251.38145,345.60098 200.78139,349.06532 151,348.80969 131.29504,348.7085 119.28191,348.34825 124,348 z m 63.75,-1.68933 c -0.9625,-0.25152 -2.5375,-0.25152 -3.5,0 -0.9625,0.25153 -0.175,0.45733 1.75,0.45733 1.925,0 2.7125,-0.2058 1.75,-0.45733 z m 20.4375,-0.99378 c -0.72188,-0.28887 -1.58438,-0.25335 -1.91667,0.0789 -0.33229,0.33229 0.25834,0.56864 1.3125,0.52522 1.16495,-0.048 1.4019,-0.28494 0.60417,-0.60416 z m 13,-1 c -0.72188,-0.28887 -1.58438,-0.25335 -1.91667,0.0789 -0.33229,0.33229 0.25834,0.56864 1.3125,0.52522 1.16495,-0.048 1.4019,-0.28494 0.60417,-0.60416 z m 34.95172,-5.37624 2.36078,-2.05935 -3,1.75669 C 251.55157,340.95005 251.49283,341 252.72255,341 c 0.58073,0 2.11823,-0.92671 3.41667,-2.05935 z m -176.87547,8.34177 c 1.520062,-0.22986 3.770062,-0.22371 5,0.0136 1.229937,0.23736 -0.01375,0.42542 -2.76375,0.41792 -2.75,-0.008 -3.756313,-0.20172 -2.23625,-0.43157 z m 0,-2 c 1.520062,-0.22986 3.770062,-0.22371 5,0.0136 1.229937,0.23736 -0.01375,0.42542 -2.76375,0.41792 -2.75,-0.008 -3.756313,-0.20172 -2.23625,-0.43157 z m 179.13056,-29.8475 c -0.49036,-1.95374 -0.0182,-3.21802 1.98095,-5.30472 2.45149,-2.55881 2.62474,-3.35839 2.62474,-12.11397 0,-9.9183 3.11547,-22.73957 5.77337,-23.75951 0.71562,-0.2746 2.25516,0.34279 3.42121,1.372 1.16605,1.0292 0.0243,-1.03126 -2.53725,-4.5788 L 265,264.59983 l 0.003,-41.54991 c 0.002,-22.85246 0.2982,-48.65953 0.65859,-57.34906 l 0.65526,-15.79914 3.77123,-2.70086 c 2.37485,-1.7008 4.78174,-4.81058 6.5003,-8.39858 3.16964,-6.61759 9.44617,-13.05224 14.31051,-14.67105 1.86958,-0.62218 6.27204,-1.13123 9.78325,-1.13123 8.639,0 14.68463,3.13701 24.75766,12.84646 9.21634,8.88367 8.24718,6.92262 -1.80161,-3.64553 -4.96091,-5.2173 -6.63297,-7.60648 -5.86258,-8.37687 0.7704,-0.7704 2.33139,-0.0506 5.47309,2.5238 12.04265,9.86805 20.11782,24.67612 24.34981,44.65214 2.17752,10.27844 2.7311,15.96563 3.11478,32 0.44985,18.79972 0.35523,20.05022 -2.63481,34.82146 -4.26032,21.04663 -10.0012,33.45894 -20.36764,44.03672 -5.14914,5.25411 -9.20475,8.32807 -14.18296,10.75 -6.2181,3.02515 -7.87101,3.39182 -15.28984,3.39182 -10.21577,0 -14.16601,-1.76764 -22.43956,-10.04119 l -5.79156,-5.79156 -1.75363,5.66637 c -1.80017,5.81679 -2.1726,19.65863 -0.57139,21.23689 1.99615,1.96755 19.42331,6.21385 27.31777,6.65625 10.08644,0.56524 18.01547,-1.19863 28.00726,-6.23042 8.23133,-4.14523 21.64896,-17.91372 27.186,-27.89688 7.58177,-13.66979 13.19895,-32.07115 15.90381,-52.09946 1.18859,-8.80105 1.42657,-9.52042 1.98482,-6 l 0.6343,4 0.22085,-4 c 0.12147,-2.2 0.45838,-3.40584 0.74869,-2.67964 0.29031,0.72619 -0.0131,6.57619 -0.67431,13 -3.63403,35.30667 -17.31321,63.56456 -37.14959,76.7421 -11.24954,7.47321 -17.85879,9.38063 -32.61178,9.41172 -10.86184,0.0229 -13.28755,-0.30786 -21.4067,-2.91883 -8.29147,-2.66639 -9.41398,-2.81163 -11.87887,-1.53698 -1.49716,0.77421 -2.98753,2.0993 -3.31191,2.94464 -0.9306,2.42509 -3.55031,1.7926 -4.25826,-1.02809 z M 266,309.89301 c 0,-1.28596 -0.57887,-1.10536 -2.019,0.62988 -1.05678,1.27335 -0.99492,1.41968 0.37756,0.89301 C 265.26135,311.06947 266,310.38417 266,309.89301 z m 76,-13.79891 c 0,-0.275 -1.8,1.25766 -4,3.4059 -2.2,2.14824 -4,4.1309 -4,4.4059 0,0.275 1.8,-1.25766 4,-3.4059 2.2,-2.14824 4,-4.1309 4,-4.4059 z m -77.31292,-1.85576 c -0.25029,-0.95609 -0.446,0.0617 -0.4349,2.26166 0.0111,2.2 0.21589,2.98225 0.45508,1.73834 0.23919,-1.24391 0.23011,-3.04391 -0.0202,-4 z m 33.50042,0.0786 c -0.72188,-0.28887 -1.58438,-0.25335 -1.91667,0.0789 -0.33229,0.33229 0.25834,0.56864 1.3125,0.52522 1.16495,-0.048 1.4019,-0.28494 0.60417,-0.60416 z M 308.5,292 c -0.33992,-0.55 -1.15398,-0.99311 -1.80902,-0.98469 -0.71561,0.009 -0.59227,0.40223 0.30902,0.98469 1.92112,1.24153 2.2673,1.24153 1.5,0 z m 37.5,-0.5 c 0.68469,-0.825 1.01989,-1.5 0.74489,-1.5 -0.275,0 -1.0602,0.675 -1.74489,1.5 -0.68469,0.825 -1.01989,1.5 -0.74489,1.5 0.275,0 1.0602,-0.675 1.74489,-1.5 z m -34.54139,-3.96938 c 7.53194,-3.37595 18.6894,-15.40341 22.90427,-24.69024 13.30134,-29.30745 15.40821,-67.08404 5.45673,-97.84038 -4.00704,-12.3843 -8.04079,-18.93837 -16.99598,-27.61521 -8.51062,-8.24608 -13.15377,-10.86253 -20.96578,-11.81432 -10.01225,-1.21988 -17.3623,3.64576 -23.35006,15.45742 -1.99586,3.9371 -4.37155,7.09642 -5.98594,7.96041 -1.47219,0.7879 -3.03914,2.12535 -3.48211,2.97212 -0.44298,0.84677 -1.11204,26.06458 -1.4868,56.03958 l -0.6814,54.5 7.87463,10.99519 c 4.33105,6.04736 9.85284,12.50402 12.27065,14.34815 4.35184,3.31926 4.47139,3.34589 11.89821,2.64994 4.21882,-0.39534 9.70858,-1.69196 12.54358,-2.96266 z M 284,288.62807 c 0,-0.13964 -1.4625,-1.57558 -3.25,-3.19098 L 277.5,282.5 l 2.764,3.06933 c 1.5202,1.68814 2.4202,3.44778 2,3.91033 -0.4202,0.46254 -0.2015,0.51729 0.486,0.12165 0.6875,-0.39564 1.25,-0.8336 1.25,-0.97324 z m 39.1523,-6.14244 c 0.25755,0.25756 2.6218,-1.71812 5.25389,-4.39039 2.63209,-2.67227 4.36983,-5.11563 3.86165,-5.4297 -0.50818,-0.31408 -3.58883,2.19506 -6.8459,5.57585 -3.25707,3.38079 -5.20554,5.61344 -4.32993,4.96143 0.8756,-0.65201 1.80273,-0.97474 2.06029,-0.71719 z M 327,277.5 c 2.42903,-2.475 4.64142,-4.5 4.91642,-4.5 0.275,0 -1.48739,2.025 -3.91642,4.5 -2.42903,2.475 -4.64142,4.5 -4.91642,4.5 -0.275,0 1.48739,-2.025 3.91642,-4.5 z M 346,241 c 0,-0.55 -0.45,-1 -1,-1 -0.55,0 -1,0.45 -1,1 0,0.55 0.45,1 1,1 0.55,0 1,-0.45 1,-1 z m 0.34508,-5.54313 c -0.32569,-0.84872 -0.80663,-1.32866 -1.06875,-1.06653 -0.26213,0.26213 -0.17998,0.95654 0.18255,1.54313 0.98605,1.59546 1.56238,1.28551 0.8862,-0.4766 z m 21.3172,-6.70687 c -0.27741,-0.6875 -0.50439,-0.125 -0.50439,1.25 0,1.375 0.22698,1.9375 0.50439,1.25 0.27741,-0.6875 0.27741,-1.8125 0,-2.5 z m -20.05811,-38.47917 c -0.33229,-0.33229 -0.56864,0.25834 -0.52522,1.3125 0.048,1.16495 0.28494,1.4019 0.60416,0.60417 0.28887,-0.72188 0.25335,-1.58438 -0.0789,-1.91667 z M 346.96937,175.5 c 0,-0.55 -0.43621,-0.325 -0.96937,0.5 -0.53316,0.825 -0.96937,1.95 -0.96937,2.5 0,0.55 0.43621,0.325 0.96937,-0.5 0.53316,-0.825 0.96937,-1.95 0.96937,-2.5 z m -1.1625,-5.02646 c -0.30789,-0.30789 -0.86705,0.24711 -1.24258,1.23333 -0.54268,1.4252 -0.42782,1.54006 0.5598,0.5598 0.68342,-0.67834 0.99067,-1.48524 0.68278,-1.79313 z M 332,137.62244 c 0,-0.20765 -0.7875,-0.99515 -1.75,-1.75 -1.58606,-1.24387 -1.62143,-1.2085 -0.37756,0.37756 1.30637,1.66575 2.12756,2.19548 2.12756,1.37244 z m -11,-11 c 0,-0.20765 -0.7875,-0.99515 -1.75,-1.75 -1.58606,-1.24387 -1.62143,-1.2085 -0.37756,0.37756 1.30637,1.66575 2.12756,2.19548 2.12756,1.37244 z M 367.19495,191.5 c -0.0204,-1.65 0.18706,-2.44606 0.46099,-1.76903 0.27392,0.67703 0.29059,2.02703 0.0371,3 -0.25354,0.97297 -0.47766,0.41903 -0.49804,-1.23097 z m 2,0 c -0.0204,-1.65 0.18706,-2.44606 0.46099,-1.76903 0.27392,0.67703 0.29059,2.02703 0.0371,3 C 369.4395,193.70394 369.21538,193.15 369.195,191.5 z M 365,173 c 0,-1.11111 0.66667,-2 1.5,-2 0.83333,0 1.5,0.88889 1.5,2 0,1.11111 -0.66667,2 -1.5,2 -0.83333,0 -1.5,-0.88889 -1.5,-2 z M 261.18358,146.29253 C 261.51191,143.48317 268.76366,137 271.57774,137 c 2.97904,0 1.24019,3.9662 -3.46652,7.90688 -5.7466,4.81133 -7.36585,5.13521 -6.92764,1.38565 z M 132.75,70.276604 c 1.7875,-0.221826 4.7125,-0.221826 6.5,0 1.7875,0.221827 0.325,0.403322 -3.25,0.403322 -3.575,0 -5.0375,-0.181495 -3.25,-0.403322 z M 276,129.44098 C 276,129.19844 275.55,129 275,129 c -0.55,0 -1,0.47656 -1,1.05902 0,0.58246 0.45,0.7809 1,0.44098 0.55,-0.33992 1,-0.81648 1,-1.05902 z m 60.60713,-16.91204 c -0.11875,-0.80908 -0.49517,-1.75031 -0.83648,-2.09163 -0.48071,-0.4807 -0.38708,1.54849 0.15284,3.31269 0.29536,0.9651 0.85721,-0.0384 0.68364,-1.22106 z M 299,96.051043 c 4.40607,-0.783997 4.36433,-0.801242 -2,-0.826196 -3.575,-0.01402 -7.625,0.334801 -9,0.775153 -2.04874,0.65612 -1.68772,0.805253 2,0.826197 2.475,0.01406 6.525,-0.334763 9,-0.775154 z M 61.1875,68.316886 c -0.721875,-0.288871 -1.584375,-0.253344 -1.916667,0.07895 -0.332291,0.332292 0.258334,0.568641 1.3125,0.52522 1.164943,-0.04798 1.4019,-0.284941 0.604167,-0.604167 z m 176,0 c -0.72188,-0.288871 -1.58438,-0.253344 -1.91667,0.07895 -0.33229,0.332292 0.25834,0.568641 1.3125,0.52522 1.16495,-0.04798 1.4019,-0.284941 0.60417,-0.604167 z M 77.730968,67.307009 c -0.972967,-0.253543 -2.322967,-0.236869 -3,0.03705 -0.677032,0.273923 0.119032,0.481368 1.769032,0.460988 1.65,-0.02038 2.203936,-0.244498 1.230968,-0.498042 z m 148.507372,-0.01427 c -1.24391,-0.239193 -3.04391,-0.230112 -4,0.02018 -0.95609,0.250292 0.0617,0.445996 2.26166,0.434897 2.2,-0.0111 2.98225,-0.215885 1.73834,-0.455078 z m -129.999999,-1 c -1.243913,-0.239193 -3.043913,-0.230112 -4,0.02018 -0.956088,0.250292 0.06166,0.445996 2.261659,0.434897 2.2,-0.0111 2.982253,-0.215885 1.738341,-0.455078 z M 214.25,66.276604 c -1.7875,-0.221826 -4.7125,-0.221826 -6.5,0 -1.7875,0.221827 -0.325,0.403322 3.25,0.403322 3.575,0 5.0375,-0.181495 3.25,-0.403322 z M 73.1875,65.316886 c -0.721875,-0.288871 -1.584375,-0.253344 -1.916667,0.07895 -0.332291,0.332292 0.258334,0.568641 1.3125,0.52522 1.164943,-0.04798 1.4019,-0.284941 0.604167,-0.604167 z m 47.5625,-0.03314 c -1.5125,-0.229125 -3.9875,-0.229125 -5.5,0 -1.5125,0.229124 -0.275,0.41659 2.75,0.41659 3.025,0 4.2625,-0.187466 2.75,-0.41659 z m 108.4375,0.03314 c -0.72188,-0.288871 -1.58438,-0.253344 -1.91667,0.07895 -0.33229,0.332292 0.25834,0.568641 1.3125,0.52522 1.16495,-0.04798 1.4019,-0.284941 0.60417,-0.604167 z M 92.75,64.310674 c -0.9625,-0.251527 -2.5375,-0.251527 -3.5,0 -0.9625,0.251528 -0.175,0.457323 1.75,0.457323 1.925,0 2.7125,-0.205795 1.75,-0.457323 z m 123,0 c -0.9625,-0.251527 -2.5375,-0.251527 -3.5,0 -0.9625,0.251528 -0.175,0.457323 1.75,0.457323 1.925,0 2.7125,-0.205795 1.75,-0.457323 z m -96,-1.026928 c -1.5125,-0.229125 -3.9875,-0.229125 -5.5,0 -1.5125,0.229124 -0.275,0.41659 2.75,0.41659 3.025,0 4.2625,-0.187466 2.75,-0.41659 z"
     id="path2987"
     inkscape:connector-curvature="0" />
  <path
     style="fill:#90387a;fill-opacity:0.98823529;fill-rule:nonzero"
     d="M 87.862602,350.39963 C 54.199117,348.87 41.727114,346.64717 38.149566,341.53951 c -2.22779,-3.18063 -2.534631,-20.21154 -2.387397,-132.50986 0.09292,-70.87309 0.664956,-130.385582 1.271187,-132.249989 0.60623,-1.864407 2.47843,-3.50267 4.160443,-3.640586 26.165909,-2.145457 99.012131,-3.871265 135.924841,-3.22021 52.06965,0.918387 79.30822,2.90724 83.11783,6.068934 1.55768,1.292758 2.47539,5.150456 2.47539,10.405599 0,4.593166 1.24163,10.752243 2.75916,13.686842 1.51754,2.93459 3.615,12.23993 4.66101,20.67854 l 1.90187,15.34291 -5.08475,2.54238 c -5.23491,2.61746 -8.15518,10.17049 -3.93144,10.16836 1.81915,-9.1e-4 2.13837,10.94447 1.71056,58.65188 -0.48583,54.17703 -0.29695,58.90606 2.47498,61.96901 1.93792,2.14137 2.37268,3.72963 1.22733,4.48371 -2.94572,1.93939 -5.71505,12.16411 -5.77878,21.33589 -0.0331,4.75496 -1.15007,10.55216 -2.48231,12.88267 -3.74157,6.54521 -3.28103,10.75802 1.05217,9.62487 3.30542,-0.86439 3.51141,-0.43726 2.56102,5.31079 -0.56843,3.43794 -1.13037,8.53892 -1.24878,11.33553 -0.12187,2.8793 -0.55146,3.79824 -0.99039,2.11864 -0.93319,-3.57098 -1.6441,-3.61693 -10.05922,-0.65023 -12.01244,4.23489 -58.90112,7.77664 -128.60293,9.71405 -7.42644,0.20642 -7.8457,0.39557 -3.38983,1.5294 2.79661,0.71161 24.53389,1.51783 48.30508,1.7916 41.9788,0.48345 42.51436,0.53178 18.64407,1.68247 -31.13303,1.50078 -62.65919,1.43904 -98.578078,-0.19308 l 0,0 z m -3.68181,-4.12844 c 0,-1.39831 -1.01695,-2.54238 -2.259889,-2.54238 -1.242937,0 -2.259886,1.14407 -2.259886,2.54238 0,1.3983 1.016949,2.54237 2.259886,2.54237 1.242939,0 2.259889,-1.14407 2.259889,-2.54237 z"
     id="path2989"
     inkscape:connector-curvature="0"
     change-color="1" />
  <path
     style="fill:#ded0da;fill-opacity:0.98823529;fill-rule:nonzero"
     d="m 288.98305,312.16649 c -21.08928,-5.31547 -21.18644,-5.37207 -21.18644,-12.34095 0,-3.58625 0.47906,-8.91574 1.06457,-11.84332 l 1.06458,-5.32288 7.71424,6.32124 c 6.72088,5.50725 9.08283,6.40839 18.34251,6.998 13.16019,0.83798 22.63007,-3.24373 32.58688,-14.0456 9.16925,-9.94745 14.8601,-21.70756 19.10841,-39.48735 3.08829,-12.92496 3.43346,-18.3921 2.70122,-42.78461 -0.6884,-22.93184 -1.51656,-29.9493 -4.60058,-38.98305 -5.20847,-15.2567 -7.69944,-19.63871 -16.53067,-29.08001 -7.21173,-7.70992 -11.27207,-9.93563 -12.5811,-6.89642 -0.31074,0.72143 -3.23447,0.38313 -6.49718,-0.7518 -5.6521,-1.96606 -5.71212,-2.06801 -1.27118,-2.15916 5.8655,-0.12039 6.04099,-3.04473 0.31338,-5.22236 -7.61953,-2.89695 -21.00156,-1.9755 -27.23197,1.8751 -4.16173,2.57209 -5.73591,2.91654 -5.80957,1.27119 -0.0556,-1.24129 -0.69144,-5.84073 -1.41305,-10.22099 l -1.31201,-7.9641 9.22351,-1.1524 c 21.91784,-2.738457 38.38795,3.10753 54.64623,19.39643 9.92667,9.94538 22.55439,32.21555 24.67425,43.51538 0.70618,3.76424 2.0945,5.91162 3.87751,5.99752 1.75796,0.0847 1.99979,0.44761 0.65883,0.9887 -1.16525,0.47019 -2.11864,2.017 -2.11864,3.43736 0,1.53216 0.97695,2.20757 2.4021,1.66069 2.80525,-1.07647 4.37756,2.218 4.37756,9.1723 0,3.38231 -0.84848,4.94613 -2.68361,4.94613 -1.47599,0 -2.33405,0.95339 -1.90678,2.11864 0.42726,1.16525 1.58219,1.94553 2.56653,1.73394 2.1877,-0.47025 4.50269,16.43114 2.92949,21.38785 -0.62373,1.96522 -2.12209,3.57312 -3.32968,3.57312 -1.42662,0 -2.93684,4.60061 -4.31194,13.1356 -2.60019,16.13882 -7.52381,32.4409 -13.16641,43.59391 -6.11465,12.08609 -22.59648,28.6188 -32.98667,33.08855 -8.56904,3.6863 -22.89248,5.66194 -29.31432,4.04335 l 0,0 z"
     id="path2995"
     inkscape:connector-curvature="0"
     change-color="1" />
</svg>
