<svg width="193.05" height="350.1" xmlns="http://www.w3.org/2000/svg">
 <g>
  <title>Layer 1</title>
  <text xml:space="preserve" text-anchor="middle" font-family="Kroftsmann" font-size="24" y="157.475929" x="63.413703" stroke-width="0" stroke="#000000" fill="#56aaff" id="svg_2" transform="matrix(2.71238, 0, 0, 2.71238, -76.4803, -223.576)">MUSIC</text>
  <text xml:space="preserve" text-anchor="middle" font-family="Kroftsmann" font-size="24" id="svg_1" y="206.775508" x="68.139308" stroke="#e5e5e5" fill="#56aaff" transform="matrix(2.88102, 0, 0, 2.88102, -99.2857, -337.159)">dance</text>
  <g id="svg_24">
   <path change-color="1" fill-rule="evenodd" clip-rule="evenodd" d="m138.138412,111.347961c0.229065,-0.017532 0.460464,-0.038574 0.690704,-0.056099c0.0327,-0.632256 -0.324921,-0.834435 -0.188187,-1.262169c0.157791,0.169456 0.136734,0.516548 0.312042,0.65329c0.137909,0.054924 0.276978,0.111023 0.419571,0.167114c-0.542282,0.583176 -0.55513,1.800941 -0.924438,2.394623c-0.199829,0.144913 -0.400864,0.291 -0.603027,0.43708c-0.028046,0.287498 -0.058441,0.576157 -0.086487,0.86132c-0.16127,0.230217 -0.479172,0.087646 -0.705872,0.240746c-0.799377,0.536415 -2.049866,1.596405 -2.320984,2.75222c0.680161,-0.017525 0.873001,-0.449944 1.352127,-0.48851c0.329575,-0.026878 0.203354,0.254776 0.485016,0.111046c-0.236069,-0.29451 -0.204514,-0.241936 -0.308517,-0.653305c0.045563,-0.036224 0.089966,-0.073631 0.134384,-0.108681c0.176468,0.09816 0.354111,0.199844 0.530563,0.302681c-0.486145,0.849632 -0.212662,1.451492 -1.285538,1.671204c-0.181122,1.721466 -2.044006,1.89093 -3.066574,2.742889c0.015182,0.043236 0.0327,0.084152 0.049072,0.127388c1.696899,0.19516 4.00621,0.460464 4.885056,0.855469c0.497864,-0.011696 0.998047,-0.021034 1.494736,-0.036224c1.207245,-0.084152 2.4729,0.375137 3.411362,0.709389c3.530563,1.272675 6.91037,3.040878 10.56601,4.340446c2.552383,0.909225 5.455353,0.970001 8.262527,1.256332c-0.072464,0.373962 -0.225555,0.633423 -0.509537,0.756134c-1.120773,0.483826 -2.325653,0.216202 -3.445267,0.280487c0.121552,0.501343 0.68251,0.735077 0.94313,1.146469c-0.098175,0.156601 -0.196335,0.314362 -0.295685,0.468628c-0.021042,-0.002335 -0.039749,-0.002335 -0.060776,-0.005844c-1.028427,-0.156601 -1.329926,-0.916229 -2.178406,-1.209579c-0.617081,-0.039719 -1.236465,-0.080643 -1.853516,-0.121536c-1.040131,-0.349442 -2.08374,-0.703552 -3.12738,-1.056488c-1.511078,-0.188156 -3.026871,-0.380981 -4.540298,-0.576141c-3.204514,-0.857819 -6.585495,-1.498253 -9.100479,-2.206467c-1.975052,-0.129723 -3.950119,-0.266464 -5.926346,-0.399696c-0.326065,0.162453 -0.414886,0.643944 -1.156982,0.383324c-0.324905,-0.116859 -0.313232,-0.370468 -0.503708,-0.546928c-0.716385,-0.092331 -1.433975,-0.184654 -2.148033,-0.27697c0.50486,0.973495 0.026894,1.10556 0.248955,1.887405c0.171768,0.522392 0.503677,0.511871 0.97934,0.781845c-0.143753,-0.01519 -0.288666,-0.028053 -0.430084,-0.040916c-0.34359,-0.073624 -0.513046,-0.196335 -0.641586,-0.435905c-0.061951,-0.102852 -0.510704,-2.160889 -0.517738,-2.288269c-0.302689,-0.073631 -0.606529,-0.142578 -0.910393,-0.216209c0.136734,0.7164 0.269974,1.43631 0.407867,2.15387c0.010513,0.65329 -0.570297,0.758469 -0.737427,1.171013c-0.183479,0.452271 -0.067802,0.929108 -0.196342,1.345154c-0.271149,0.075958 -0.376297,0.086472 -0.529404,0.317871c-0.243103,-0.26413 -0.447617,-0.156601 -0.805237,-0.016342c0.27932,-0.36348 0.677856,-0.23024 0.936127,-0.65448c-0.038574,-0.025711 -0.07946,-0.047897 -0.116875,-0.074783c-0.239578,0.093475 -0.591347,0.211517 -0.819252,0.107513c-0.038544,-0.022217 -0.073616,-0.049088 -0.116844,-0.073639c0.00116,-0.021027 0.002319,-0.039734 0.004654,-0.06076c0.35762,-0.046753 0.714081,-0.095825 1.072845,-0.141418c0.053764,-0.140213 0.111031,-0.279297 0.16362,-0.418381c-0.018692,-0.024536 -0.035049,-0.044403 -0.054924,-0.06778c-0.204521,0.116867 -0.231384,0.206863 -0.449936,0.143753c0.294495,-0.105194 0.363464,-0.206879 0.432411,-0.582001c-0.019867,-0.021042 -0.037407,-0.043251 -0.058441,-0.067795c-0.507202,-0.007004 -0.626404,-0.122704 -1.095039,-0.232559c-0.047913,0.077133 -0.097,0.156593 -0.146103,0.234901c0.146103,0.801704 0.220894,1.899101 0.06781,2.42617c-0.227898,-0.222046 -0.371658,-0.302689 -0.378662,0.089996c-0.060776,0.201004 -0.121552,0.402008 -0.183487,0.603027c-0.104012,-0.012848 -0.206848,-0.022202 -0.312035,-0.031555c-0.054939,-0.045578 -0.109856,-0.094666 -0.170624,-0.139069c0.03038,-0.310883 0.061928,-0.618225 0.091148,-0.925598c0.045586,0.202179 0.031563,0.204529 0.154266,0.32489c0.01754,-0.927917 -0.922081,-2.02063 -1.892075,-2.235672c-0.001175,0.022209 -0.00351,0.039742 -0.005859,0.06311c0.075966,0.088821 0.149605,0.181137 0.223228,0.266464c0.129715,0.369293 0.34359,0.517715 0.400856,0.97467c-0.023384,-0.002335 -0.039742,-0.002335 -0.060776,-0.004669c0.004684,-0.043243 0.009346,-0.081818 0.011688,-0.122711c-0.34359,-0.532928 -0.681343,-1.063492 -1.023773,-1.59407c-0.040894,-0.002342 -0.078278,-0.007011 -0.121529,-0.009361c-0.566811,0.746773 -1.51461,1.480721 -1.8582,2.423836c-0.24308,0.674316 -0.164787,1.313599 -0.384491,2.012451c0.822754,0.219727 0.7164,1.394226 1.251656,1.803268c0.423058,0.321396 0.790016,0.234909 1.315926,0.503708c0.6194,0.314362 1.186203,0.902222 1.68055,1.221252c0.652122,0.313202 1.30542,0.627594 1.95755,0.939621c0.753784,0.603043 0.910393,1.554337 1.59523,2.082596c0.761971,-0.156616 2.470573,0.329559 3.481468,0.593658c2.562912,0.502563 5.11998,1.006241 7.681717,1.509949c1.284363,0.341248 2.933365,0.847275 4.520432,0.759644c3.690674,-0.211533 6.188126,-1.068176 10.112549,-1.11142c4.847656,-0.056091 7.849991,2.596802 12.654404,2.12114c0.447601,-0.042068 0.643967,-0.365784 0.978195,-0.459274c0.664963,-0.040924 1.334625,-0.077148 1.999603,-0.114532c1.714447,-0.45578 3.238388,-2.511505 5.479904,-2.005463c0.418396,0.09584 2.096603,1.821991 2.451889,2.231018c-0.038574,0.163605 -0.074783,0.32489 -0.112198,0.488495c-0.337723,0.542267 -0.780655,0.694199 -1.339279,0.984024c-0.323746,0.319046 -0.645126,0.642776 -0.964172,0.962997c-1.242294,0.205673 -2.488113,0.416046 -3.729233,0.621735c-1.158157,0.32489 -2.772095,0.728088 -4.065826,0.902222c-0.687164,0.092316 -1.24231,-0.342438 -1.751831,-0.486176c-0.827423,-0.037399 -1.650192,-0.079468 -2.475266,-0.121552c-2.245026,0.29451 -4.492401,0.590195 -6.736267,0.885864c-1.374359,0.091156 -2.751022,0.185822 -4.127747,0.274643c-0.717575,-0.051407 -1.438629,-0.10051 -2.159714,-0.151932c-2.173721,0.195175 -4.160492,0.765472 -6.196304,1.063492c-3.125061,0.185806 -6.250076,0.371643 -9.373947,0.562134c-2.51265,0.06311 -5.027649,0.125061 -7.537949,0.183502c-0.881195,-0.107544 -1.758865,-0.216232 -2.64122,-0.322571c-1.393059,0.271118 -1.842995,1.035446 -2.777946,1.712082c-1.64315,1.192078 -5.746361,1.821991 -8.277718,2.035858c-1.930649,0.021027 -3.858963,0.031555 -5.786125,0.049088c-1.056465,0.072464 -2.623665,0.125046 -3.833237,-0.191681c-1.557854,-0.411362 -3.645103,-1.162827 -5.555893,-0.986343c-0.722229,0.176453 -1.443321,0.354111 -2.16555,0.530579c-1.731979,0.116852 -3.461617,0.234894 -5.193588,0.354126c-0.97702,0.112183 -2.219322,0.444077 -3.487343,0.0923c-2.789619,-0.777161 -5.165535,-1.923645 -7.784538,-2.948563c-0.892868,-0.349426 -2.297615,-1.457336 -3.674316,-1.171005c-1.013245,0.210358 -1.491219,1.359161 -2.749878,1.407074c-0.465157,-0.317871 -0.932617,-0.632263 -1.395416,-0.948959c-0.192825,-0.369308 -0.382149,-0.743286 -0.572647,-1.112579c-1.096207,-0.965332 -3.750282,-0.539948 -4.573029,-0.267639c-0.333069,0.107513 -1.847672,-0.711716 -1.88974,-0.996887c1.057648,-0.134369 1.731972,-1.203705 2.527847,-1.677032c0.563301,-0.33075 4.066978,-0.890533 4.941154,-0.938446c2.109459,-0.119217 3.994537,0.81691 5.587433,1.30072c2.707817,0.818085 6.496674,0.995728 9.504845,1.252838c1.947006,0.194 3.898697,0.384491 5.846878,0.579681c1.476021,-0.178833 2.788452,-1.028473 3.99218,-1.407104c0.562149,-0.049088 1.12545,-0.095825 1.689919,-0.142578c1.354492,-0.280487 2.707825,-0.558624 4.06115,-0.839111c2.177231,-0.603043 4.509911,-1.972717 7.355637,-1.509918c-0.213867,-0.614746 -0.251266,-1.803284 -0.708214,-2.243866c-0.267616,0.010529 -0.260612,0.029221 -0.417213,-0.169464c0.452271,-0.740936 -1.687569,-5.914658 -1.587067,-7.798569c0.128563,-2.434341 0.497864,-5.188911 1.099724,-7.34745c0.120377,-0.793541 0.241928,-1.591743 0.359955,-2.386444c0.490845,-0.965317 0.980515,-1.932991 1.470192,-2.90065c0.299179,-1.375526 0.605377,-2.756905 0.908073,-4.133606c0.413696,-1.483055 0.177628,-3.308525 0.078285,-4.589394c-0.151917,-1.976219 1.217773,-9.157738 1.797424,-9.950096c-0.148422,-0.587845 0.16362,-1.66185 0.248924,-2.523163c0.219719,-2.007797 0.439423,-4.017906 0.660309,-6.025696c0.40435,-1.439812 1.320602,-3.001152 1.396576,-4.707413c0.072449,-1.617462 -3.583176,-5.221649 -2.988312,-6.198669c0.121536,0.012856 0.24659,0.024551 0.368126,0.03624c0.781853,0.514221 1.077522,1.40123 1.791595,1.979729c0.088806,-0.052597 0.17646,-0.107506 0.266441,-0.16011c0.201019,-0.404358 0.388008,-1.291389 0.669655,-1.736649c-0.195168,-0.837944 -0.24308,-3.072449 0.240746,-3.70237c0.022209,0.00235 0.042084,0.00351 0.061943,0.005859c0.17881,0.095818 0.072472,0.004662 0.170631,0.141403c0.094666,0.376305 -0.030396,0.807549 0.272301,1.022598c0.109848,-0.44178 0.30619,-0.705894 0.646278,-0.867172c0.051414,0.087662 0.107521,0.175301 0.16127,0.264122c-0.148415,0.407867 0.046753,0.730431 0.024544,0.99688c-0.237244,0.721069 -0.474495,1.442146 -0.712898,2.16555c0.021049,0.00235 0.042084,0.004692 0.061951,0.005852c0.113365,-0.093491 0.226723,-0.184654 0.340088,-0.27581c0.019859,0.002335 0.042076,0.00351 0.061935,0.005844c0.09816,0.028046 0.198669,0.060776 0.299187,0.089981c-0.001183,0.021042 -0.003517,0.042084 -0.005844,0.061951c-1.002731,2.413322 0.495514,5.697289 0.234894,8.908813c-0.19516,2.403969 -0.121536,4.885071 0.005844,7.457321c0.077133,1.548485 -0.655624,2.941544 -0.849625,4.202545c-0.175316,1.12661 0.021034,2.285934 -0.288666,3.513039c-0.09816,0.776001 -0.195168,1.554344 -0.291,2.332672c0.238426,0.908073 0.535255,2.090775 0.752632,3.057274c0.392685,1.747154 -0.234909,3.075951 0.636932,4.225914c0.802872,-0.363449 1.221252,-2.732346 0.984032,-3.690666c-0.40905,-1.671211 -1.831322,-2.765091 0.153084,-4.02375c0.0783,-0.17765 0.156601,-0.35762 0.238426,-0.535263c0.25592,-0.307358 1.274994,-0.393837 1.782219,-0.445267c0.162437,-0.40435 0.154266,-0.78183 0.529396,-0.940781c0.800545,-0.161278 1.400085,0.952477 2.419174,0.674332c0.681335,-0.188164 1.156967,-0.669662 2.121124,-0.721069c0.73159,-0.040909 1.127792,0.413696 1.556686,0.586678c0.656807,0.06543 1.312424,0.129723 1.969231,0.19516c0.917404,0.300354 1.575363,0.591347 2.54303,0.068962c-0.035065,-0.067795 -0.070145,-0.133232 -0.107529,-0.197502c-0.290985,-0.17765 -0.340088,-0.37632 -0.288651,-0.836777c0.021027,0.002327 0.039719,0.005829 0.063095,0.007004c-0.010513,0.579674 0.596024,0.909225 0.950134,1.024925c0.302704,-0.24308 0.331924,-1.886238 0.68251,-2.479935c0.064285,0.005852 0.122711,0.011696 0.184662,0.0187c-0.292175,0.303864 -0.594864,0.793541 -0.368149,1.207245c0.119202,-0.183472 0.072464,-0.141411 0.269974,-0.222038c-0.025726,0.266457 -0.053757,0.532906 -0.078308,0.800537c0.298019,0.064278 0.32724,0.074791 0.559784,-0.007019c0.111038,-0.299171 0.224411,-0.598358 0.337769,-0.898705c-0.112198,-0.135567 -0.222061,-0.271126 -0.333084,-0.405525c0.161285,-0.171799 0.32489,-0.341263 0.486176,-0.510719c-0.387985,-0.077126 -0.514221,-0.060776 -0.868332,-0.024544c0.049088,-0.058426 0.095825,-0.116867 0.142578,-0.174126c0.269974,-0.01403 0.541107,-0.029221 0.811066,-0.043243c0.075974,-0.24192 0.157776,-0.607712 0.380981,-0.707047c0.022217,0.189323 0.046753,0.376328 0.068954,0.566811c0.299179,-0.094666 0.598358,-0.189331 0.897537,-0.285164c0.012878,-0.321388 -0.084137,-0.272301 0.16713,-0.418381c-0.010529,0.081802 -0.017532,0.163612 -0.024551,0.24659c0.06662,-0.056099 0.134415,-0.111038 0.204529,-0.16713c-0.097015,-0.546928 0.177643,-0.75145 0.306183,-1.211906c1.258667,-0.032722 1.521606,-1.036621 2.34787,-1.754181c-0.297989,1.69809 -0.562149,2.44136 -1.158142,3.55043c0.03389,0.044411 0.073624,0.091156 0.112183,0.133224c0.441757,-0.217377 0.81691,-0.011673 1.313583,-0.116867c0.009354,-0.081802 0.017548,-0.16478 0.024551,-0.24659c-0.335419,-0.136719 -0.255936,-0.201019 -0.195175,-0.516548c0.113358,-0.111031 0.229065,-0.225555 0.345917,-0.336578c0.019882,0.001175 0.038589,0.002327 0.059601,0.004669c-0.059601,0.924431 0.483856,0.645119 0.683685,1.248138c-0.254776,-0.045563 -0.525894,0.05143 -0.603027,0.437088c0.03389,0.106361 0.06311,0.213882 0.094666,0.321388c0.018677,0.002335 0.037384,0.004684 0.060776,0.005844c0.09816,-0.24308 0.129684,-0.301514 0.349426,-0.399689c0.396179,-0.074791 0.441757,-0.004669 0.795853,0.140244c0.016388,0.022217 0.03508,0.046745 0.053757,0.067787c-0.116867,0.37748 -0.183456,0.23024 -0.115677,0.546936c0.16011,0.056099 0.319046,0.115692 0.480316,0.170631c0.068954,-0.075958 0.139084,-0.149597 0.209198,-0.22673c0.038559,0.025711 0.075958,0.049103 0.116867,0.073631c0.017517,0.229057 0.007019,0.188156 0.091141,0.320221c0.283997,-0.158951 0.571503,-0.316719 0.856659,-0.474495c-0.168304,0.368149 0.114532,0.597198 0.336563,0.965332c0.043243,-0.017532 0.088837,-0.032722 0.12973,-0.051422c0.009354,-0.100494 0.021027,-0.202179 0.03038,-0.307358c0.038559,0.025703 0.078308,0.049088 0.119217,0.074791c-0.028046,0.059601 -0.053757,0.119209 -0.080658,0.177643c-0.22905,0.618233 -0.612366,1.348648 -0.995697,1.88974c-0.070129,-0.267616 0.025711,-0.148407 -0.222046,-0.269951c0.029221,0.125038 0.058441,0.253593 0.087646,0.380974c-0.163605,0.485016 -0.312042,1.020256 -0.757309,1.353325c-0.121536,-0.011681 -0.246582,-0.024529 -0.369293,-0.036209c0.082962,0.008171 0.16713,0.017517 0.248932,0.024529c0.052567,-0.27581 0.094666,-0.24192 -0.019882,-0.435913c-0.157761,0.106339 -0.312027,0.217384 -0.467453,0.326065c-0.078323,0.899864 -0.517731,2.65406 -0.407883,3.50135c-0.266434,-0.029236 -0.391495,0.086479 -0.590164,0.31321c-0.007019,0.061928 -0.014038,0.122704 -0.021042,0.185814c0.230225,-0.019875 0.458115,-0.036224 0.690689,-0.057274c0.099335,-0.348251 0.203354,-0.377472 0.267624,-0.836761zm-1.541473,-12.019829c0.016342,0.042068 0.03389,0.086479 0.046738,0.128555c-0.011688,-0.042076 -0.030396,-0.086487 -0.046738,-0.128555zm-1.561356,1.95636c-0.086487,0.032715 -0.170624,0.065445 -0.25827,0.099335c-0.009354,0.08181 -0.018707,0.16478 -0.024551,0.244255c0.059601,0.026878 0.119186,0.054924 0.178802,0.081795c0.06897,-0.077126 0.137909,-0.151909 0.209198,-0.22905c-0.03624,-0.065445 -0.068939,-0.12973 -0.105179,-0.196335zm0.363449,0.099335c-0.049072,0.283997 -0.09816,0.569145 -0.146088,0.854309c0.021042,0.002327 0.039749,0.004677 0.060776,0.007004c0.043243,-0.017517 0.086487,-0.033897 0.13089,-0.051407c0.024551,-0.058441 0.049088,-0.119217 0.077133,-0.176483c-0.039719,-0.211533 -0.080643,-0.423058 -0.122711,-0.633423zm2.416824,0.673149c0.084152,0.165962 0.060776,0.016373 -0.017532,0.185837c-0.038559,-0.046753 -0.074799,-0.091156 -0.111023,-0.137901c0.043243,-0.01403 0.085312,-0.031563 0.128555,-0.04792l0,-0.000015zm-3.019852,-0.237236c-0.043243,0.016373 -0.087646,0.033897 -0.12973,0.051422c-0.014023,0.142578 -0.028046,0.287506 -0.042068,0.430069c0.128555,-0.050255 0.259445,-0.099335 0.386841,-0.147255c0.009338,-0.063095 0.014023,-0.122704 0.021011,-0.184639c-0.079453,-0.050255 -0.157745,-0.098175 -0.236053,-0.149597zm3.163589,1.930656c-0.008179,0.204521 -0.025696,0.119202 0.091171,0.319046c0.044403,-0.01635 0.087646,-0.03389 0.1297,-0.047913c0.00235,-0.022202 0.0047,-0.043243 0.008194,-0.063103c-0.074783,-0.070129 -0.153091,-0.139076 -0.229065,-0.208031zm-1.318268,0.119202c-0.143738,0.2314 -0.291,0.466309 -0.439407,0.700043c0.053772,0.066612 0.112183,0.136742 0.165955,0.203346c0.021027,0.00116 0.040894,0.00351 0.061951,0.005844c0.051392,-0.077133 0.09581,-0.157768 0.144897,-0.234901c-0.011673,0.122711 -0.024536,0.246597 -0.035065,0.369293c0.373978,-0.17997 0.48851,-0.350601 0.696533,-0.739777c-0.017517,-0.063095 -0.029221,-0.125023 -0.042068,-0.189316c-0.182327,-0.038574 -0.365799,-0.0783 -0.552795,-0.114532zm1.090378,0.292175c0.03157,0.106346 0.06662,0.2127 0.094681,0.319054c0.021027,0.002319 0.038559,0.004669 0.06076,0.006996c0.007019,-0.06192 0.011688,-0.122704 0.018707,-0.183472c-0.035065,-0.046745 -0.073624,-0.089989 -0.112198,-0.136742c-0.018707,-0.001167 -0.037415,-0.00351 -0.061951,-0.005836zm-7.394196,-0.607712c-0.019867,0.203346 -0.038574,0.409035 -0.060776,0.614716c0.022202,-0.205681 0.040909,-0.41021 0.060776,-0.614716zm8.047501,0.920921c-0.125046,0.39267 -0.223221,0.245415 -0.317886,0.712883c0.094666,0.390335 -0.022202,0.489677 0.305023,0.714066c0.018692,0.002335 0.038574,0.003502 0.058441,0.005836c-0.092331,-0.735085 -0.044403,-0.66848 0.19632,-1.347481c-0.081787,-0.028046 -0.16127,-0.054924 -0.241898,-0.085304zm-6.903381,-0.559807c0.060791,0.007011 0.122726,0.012856 0.183487,0.019867c-0.047913,0.057274 -0.091156,0.114525 -0.142578,0.171806c-0.061935,0.01519 -0.125046,0.029213 -0.188156,0.043228c0.046753,-0.079468 0.09584,-0.155426 0.147247,-0.234901zm-0.276978,0.285156c0.008194,0.122726 0.084167,0.071289 -0.080612,0.17765c0.029221,-0.058441 0.054916,-0.119209 0.080612,-0.17765zm6.073608,0.786514c-0.085312,0.188171 -0.116867,0.244263 -0.104019,0.425415c0.06546,-0.03624 0.12973,-0.071304 0.194,-0.105179c0.012863,-0.102852 0.022217,-0.206863 0.030411,-0.30854c-0.03624,-0.002335 -0.079498,-0.007011 -0.120392,-0.011696zm0.431244,0.044411c-0.045578,0.056114 -0.0923,0.113373 -0.141388,0.171799c0.19281,0.39151 0.061905,0.251274 0.06311,0.626411c0.022186,0.002342 0.039719,0.004684 0.061905,0.007019c0.086487,-0.053764 0.175308,-0.106354 0.265305,-0.16011c-0.044388,-0.2127 -0.081802,-0.423065 -0.123886,-0.633423c-0.043243,-0.005844 -0.082977,-0.009346 -0.125046,-0.011696zm-7.82077,-0.71405c0.051422,0.19516 0.085312,0.17881 -0.216202,0.291c0.025726,-0.060768 0.052582,-0.121552 0.080643,-0.178818c0.12854,-0.074799 0.038574,-0.003502 0.135559,-0.112183zm-0.276962,0.282814c0.016342,0.043236 0.03389,0.087646 0.049088,0.12973c-0.015198,-0.042084 -0.032745,-0.086494 -0.049088,-0.12973zm9.607666,2.131668c-0.128555,0.258278 -0.25827,0.515388 -0.385666,0.772499c0.078308,0.006989 0.161285,0.015182 0.244263,0.024544c0.091141,-0.094666 0.184647,-0.189331 0.276978,-0.285164c-0.044418,-0.169449 -0.091171,-0.34008 -0.135574,-0.511879zm-1.649002,1.577721c-0.067795,0.054916 -0.134384,0.111008 -0.204529,0.167107c-0.001144,0.226723 -0.003494,0.454613 -0.005829,0.681335c0.043243,-0.01519 0.086472,-0.031555 0.129715,-0.046745c0.085312,-0.26178 0.175308,-0.5224 0.265289,-0.78302c-0.061951,-0.007004 -0.125061,-0.014015 -0.184647,-0.018677zm-0.603043,1.057648c-0.167114,0.024529 -0.334244,0.04908 -0.500198,0.073624c-0.119186,0.402016 -0.298004,0.497849 0.114548,0.697685c0.161285,-0.288651 0.349426,-0.27697 0.545776,-0.506027c-0.059601,-0.144913 -0.050262,-0.158943 -0.160126,-0.265282zm0.884705,1.765862c0.039719,0.004669 0.080627,0.008194 0.121536,0.011681c-0.040909,-0.003487 -0.081818,-0.007011 -0.121536,-0.011681zm0.754944,0.510712c-0.043243,0.017532 -0.087646,0.032722 -0.129715,0.050262c0.09819,0.135559 -0.00351,0.043236 0.172974,0.141396c0.005829,-0.06076 0.011688,-0.122696 0.017517,-0.183472c-0.018677,-0.003517 -0.038559,-0.005844 -0.060776,-0.008186zm-0.456955,0.823921c-0.097,0.155426 -0.19516,0.31321 -0.28981,0.468636c0.016357,0.001175 0.037369,0.003494 0.058426,0.005844c0.042068,-0.0187 0.085312,-0.031555 0.129715,-0.050255c0.073639,-0.136734 0.151932,-0.273476 0.225555,-0.413704c-0.038544,-0.00235 -0.078308,-0.007011 -0.123886,-0.010536l0,0.000015zm0.16362,0.26413c-0.037399,0.14257 -0.071289,0.281631 -0.105179,0.425385c0.022217,0.002335 0.040924,0.003502 0.061951,0.005836c0.019867,0.00119 0.040878,0.00351 0.06076,0.005859c0.016373,-0.144936 0.028046,-0.286331 0.042068,-0.431252c-0.019852,-0.001167 -0.042068,-0.003502 -0.059601,-0.005844l0,0.000015zm-0.693024,0.738602c-0.082977,0.17997 -0.163605,0.35994 -0.241913,0.535248c-0.073639,-0.068962 -0.153091,-0.136742 -0.227875,-0.205688c-0.074814,0.490845 -0.265305,0.60537 -0.466309,0.946617c0.344757,-0.068947 0.78653,-0.254761 1.041275,-0.456947c-0.007004,-0.282822 -0.011673,-0.68718 -0.105179,-0.819229zm-3.426544,3.826233c-0.502518,1.249313 -1.437469,1.099724 -2.102448,1.778725c-0.007019,0.060768 -0.012863,0.122711 -0.019882,0.183479c0.201035,0.060768 0.404373,0.121552 0.603058,0.184662c0.290985,-0.328415 0.45694,-0.708229 0.842606,-0.973526c0.337738,0.183495 0.633423,0.273476 1.10556,0.170631c0.023376,-0.058426 0.050262,-0.119209 0.075974,-0.178795c-0.039734,-0.423065 -0.171799,-0.965332 -0.504868,-1.165176zm1.597565,0.156601c0.121567,0.150764 0.169449,0.155434 0.364639,0.099335c-0.119202,-0.03389 -0.241898,-0.065445 -0.364639,-0.099335zm-0.822754,0.167122c-0.087646,0.053764 -0.174118,0.109848 -0.262939,0.163612c0.014023,0.080635 0.024551,0.16713 0.037415,0.251266c0.278137,0 0.430054,0.222054 0.473297,-0.386841c-0.085312,-0.011681 -0.16478,-0.018684 -0.247772,-0.028038zm1.103241,0.171791c0.099335,0.136742 -0.004669,0.043251 0.170624,0.142578c-0.09816,-0.137901 0.004684,-0.043236 -0.170624,-0.142578zm-0.382156,0.086479c0.014023,0.065453 0.026886,0.127388 0.039734,0.191673c0.072464,-0.056091 0.139069,-0.11219 0.206848,-0.167122c-0.084122,-0.007019 -0.16478,-0.017532 -0.246582,-0.024551zm-6.147217,0.571487c-0.061951,0.014023 -0.125061,0.028046 -0.189331,0.043243c0.032715,0.084152 0.06427,0.170631 0.10051,0.259453c-0.104019,-0.031563 -0.205704,-0.060783 -0.305023,-0.092331c-0.010529,0.081795 -0.017548,0.162437 -0.024536,0.24659c0.321381,0.056099 0.313202,0.031555 0.621719,-0.002335c0.028046,-0.079475 0.058441,-0.156609 0.087662,-0.239586c-0.040909,-0.025711 -0.077133,-0.05024 -0.119217,-0.074791c-0.054916,-0.044411 -0.115692,-0.092323 -0.171783,-0.140244zm3.877655,0.384491c-0.03038,0.102844 -0.063095,0.201012 -0.091171,0.302689c0.165955,-0.004677 0.331909,-0.007004 0.497879,-0.014015c0.079453,0.03038 0.16127,0.058426 0.239578,0.086472c0.025696,-0.060776 0.056076,-0.119202 0.080612,-0.178802c0.002365,-0.019867 0.003525,-0.037399 0.005859,-0.060768c-0.244263,-0.045586 -0.487335,-0.088821 -0.732758,-0.135574zm-2.817673,0.218544c-0.086472,0.03038 -0.171814,0.06311 -0.26062,0.095825c0.015182,0.065453 0.029221,0.130905 0.042084,0.191673c0.022186,0.002327 0.043243,0.004669 0.06427,0.007011c0.06311,-0.01519 0.126221,-0.026878 0.190491,-0.040909c0.042084,-0.211533 0.086502,-0.086479 -0.036224,-0.253601zm0.451111,0.477989c-0.025711,0.060776 -0.054932,0.119209 -0.079468,0.176468c0.06662,-0.052589 0.134399,-0.108681 0.200989,-0.164787c-0.038544,-0.00116 -0.082962,-0.005829 -0.121521,-0.011681zm-6.094643,5.04985c0.171806,0.677826 0.262955,1.486549 0.326073,2.333839c0.085304,-0.012848 0.168274,-0.026878 0.253578,-0.037399c0.05027,-0.075958 0.09935,-0.157768 0.147263,-0.2314c-0.241913,-0.5037 -0.129723,-1.444473 -0.35878,-2.026482c-0.122704,-0.014023 -0.245422,-0.026878 -0.368134,-0.038559zm-0.763145,0.174126c0.032722,0.084152 0.066612,0.171806 0.098175,0.259445c-0.00351,0.040909 -0.008186,0.079475 -0.011703,0.121544c0.081818,0.009354 0.165955,0.017525 0.245445,0.024544c0.026863,-0.060768 0.052574,-0.116859 0.08062,-0.176468c0.001175,-0.023369 0.004669,-0.044411 0.007019,-0.060776c-0.140244,-0.058434 -0.279305,-0.114525 -0.419556,-0.168289zm5.416809,0.537605c0.052582,0.086479 0.105194,0.176468 0.158936,0.264107c0.412552,0.099342 0.84729,0.219711 1.119583,-0.012856c0.00235,-0.021034 0.004684,-0.043243 0.005844,-0.063103c-0.428894,-0.06311 -0.857788,-0.12738 -1.284363,-0.188148zm-4.875702,-0.358795c-0.158958,0.358795 -0.109871,0.607712 0.107498,0.814575c0.046753,-0.035065 0.087662,-0.072464 0.134407,-0.111031c-0.001175,-0.205681 -0.001175,-0.413712 0,-0.6194c-0.07946,-0.028053 -0.161285,-0.059601 -0.241905,-0.084145zm-1.082207,0.264122c-0.04557,0.017532 -0.085312,0.03389 -0.127388,0.04792c0.009354,0.123871 0.016365,0.252441 0.024544,0.375137c0.017532,0.002342 0.039734,0.004677 0.060776,0.007011c0.06076,-0.014015 0.126213,-0.028046 0.191666,-0.042068c-0.051422,-0.128548 -0.101692,-0.257103 -0.149597,-0.388zm2.076729,0.390343c-0.025703,0.398521 0.046761,0.558624 0.231422,0.771317c0.065414,-0.017517 0.12738,-0.029205 0.19165,-0.043236c0.007019,-0.082985 0.01403,-0.16362 0.023369,-0.24659c-0.150764,-0.161285 -0.300354,-0.320213 -0.446442,-0.481491zm-1.447983,0.168289c-0.01519,0.144905 -0.028038,0.287491 -0.044411,0.431229c0.064285,0.007019 0.122711,0.011703 0.183479,0.0187c0.009354,-0.084137 0.018715,-0.16478 0.024544,-0.246582c-0.052567,-0.06662 -0.106339,-0.134407 -0.163612,-0.203346zm-0.502518,0.075958c-0.033913,0.121552 -0.067802,0.24192 -0.09935,0.365799c0.082977,-0.01754 0.169456,-0.026878 0.252434,-0.038567c0.010529,-0.101669 0.022209,-0.205681 0.030396,-0.310875c-0.061951,-0.004677 -0.123886,-0.011688 -0.183479,-0.016357zm0.984016,0.095833c-0.088829,0.262947 -0.178795,0.520058 -0.266449,0.78418c0.021019,0.00235 0.040894,0.004669 0.060753,0.004669c0.295692,-0.086479 0.371643,-0.122704 0.425407,-0.516541c-0.03273,-0.087669 -0.06778,-0.170639 -0.09935,-0.259453c-0.040901,-0.004669 -0.0783,-0.007019 -0.120361,-0.012856zm3.074791,0.305016c0.042053,0.005844 0.079453,0.008194 0.121552,0.01403c-0.024567,0.060768 -0.052612,0.121544 -0.078316,0.177643c-0.01403,-0.06311 -0.03038,-0.128548 -0.043236,-0.191673zm-3.911568,-0.011681c-0.070122,0.074806 -0.140236,0.150764 -0.210358,0.226723c0.011688,0.08181 0.025719,0.168289 0.037399,0.252441c0.021027,0.002342 0.042068,0.004669 0.060776,0.007011c0.134392,-0.093491 0.267624,-0.181152 0.399681,-0.272301c-0.01403,-0.06311 -0.026878,-0.127396 -0.043228,-0.188164c-0.082993,-0.010506 -0.161293,-0.018692 -0.24427,-0.025711zm-1.668861,-0.106346c-0.199852,0.607712 0.156593,1.553169 0.475639,2.102432c0.042084,-0.019852 0.087669,-0.035065 0.12973,-0.053741c0.119209,-0.730431 -0.03389,-1.557838 -0.42189,-2.028824c-0.060768,-0.007019 -0.122711,-0.012856 -0.183479,-0.019867zm-0.468636,0.3284c0.016365,0.248932 0.032715,0.499016 0.051407,0.75029c0.082977,0.007011 0.163628,0.01519 0.246597,0.024536c-0.007004,-0.348267 -0.059593,-0.606537 -0.298004,-0.774826zm2.511475,0.37281c-0.065445,0.056091 -0.134384,0.109856 -0.202164,0.165947c0.036209,0.047913 0.073616,0.091164 0.112183,0.136734c0.111,-0.054924 0.216187,-0.104004 0.32254,-0.157776c-0.07711,-0.046745 -0.154259,-0.095825 -0.232559,-0.144905zm0.591354,0.303848c-0.151924,0.093498 -0.30735,0.17881 -0.461632,0.267632c0.057274,0.047913 0.114517,0.093491 0.171799,0.140236c0.142578,0.014023 0.287491,0.028053 0.432404,0.043243c0.00235,-0.022209 0.00235,-0.038567 0.004677,-0.060768c-0.021042,-0.244263 -0.012848,-0.251274 -0.147247,-0.390343zm3.745613,0.435913c0.043228,0.004677 0.080627,0.007019 0.125046,0.012871c-0.044418,-0.005852 -0.081818,-0.008194 -0.125046,-0.012871zm-5.239174,-0.392662c-0.005844,0.058418 -0.012863,0.121529 -0.017532,0.183479c0.036224,0.002327 0.077118,0.007011 0.119202,0.011681c-0.058434,-0.194008 0.008186,-0.072464 -0.101669,-0.19516zm0.676651,0.06427c-0.107513,0.183479 -0.044403,-0.002327 -0.085304,0.239571c0.085304,-0.031548 0.171791,-0.063103 0.25708,-0.099319c-0.056068,-0.044418 -0.115677,-0.091171 -0.171776,-0.140251zm-2.984795,0.01403c-0.03389,0.206848 -0.072456,0.135551 0.03038,0.315529c0.116859,0.191673 0.113365,0.171799 0.412552,0.22673c-0.049088,-0.321388 -0.140251,-0.427742 -0.442932,-0.542267l0,0.000008zm1.037781,0.790016c0.094673,0.22438 0.038559,0.169449 0.286324,0.273483c-0.031555,-0.082993 -0.066605,-0.171814 -0.09816,-0.255951c-0.06311,-0.007019 -0.123871,-0.010529 -0.188164,-0.017532zm1.266846,0.369308c0.003517,0.190491 -0.018684,0.209183 0.150764,0.39032c0.008194,-0.080627 0.017525,-0.165939 0.024544,-0.244247c-0.057274,-0.051422 -0.1157,-0.095825 -0.175308,-0.146072zm1.961029,0.321381c-0.016342,0.16478 -0.033875,0.3284 -0.047905,0.48967c0.018684,0.002335 0.038559,0.004684 0.060776,0.007004c0.019859,0.00235 0.038567,0.004684 0.060776,0.004684c0.025711,-0.058426 0.052574,-0.119202 0.078278,-0.176468c-0.046738,-0.155426 -0.04789,-0.216202 -0.151924,-0.32489zm-1.734306,0.571472c0.004677,0.147263 0.011696,0.29335 0.016365,0.438263c0.206856,-0.112183 0.232567,-0.093491 0.347092,-0.337738c-0.122704,-0.036255 -0.245415,-0.06662 -0.363457,-0.100525zm-1.668869,-0.101669c0.01754,0.040909 0.03273,0.087662 0.046753,0.127396c-0.014023,-0.039734 -0.029213,-0.086487 -0.046753,-0.127396zm0.042084,0.191666c0.01635,0.040894 0.033897,0.084137 0.049088,0.13089c-0.01403,-0.046753 -0.032738,-0.089996 -0.049088,-0.13089zm2.317482,0.475647c0.038574,0.004669 0.079468,0.008179 0.122704,0.012848c-0.114525,0.050262 -0.021027,0.052597 -0.122704,-0.012848zm-0.530586,0.941956c0.042076,0.004669 0.08297,0.010529 0.122711,0.015198c-0.113365,0.047913 -0.017525,0.051422 -0.122711,-0.015198z" id="svg_25" fill="#bf00bf"/>
  </g>
  <g id="svg_19">
   <path change-color="1" d="m110.438202,93.047691c-0.803833,0.717781 -1.935249,1.06395 -2.856422,1.663399c-1.045372,0.677681 -2.060432,1.443382 -3.329727,1.975342c-0.999413,0.420502 -2.468216,0.625854 -3.324844,1.195969c-1.213554,0.832191 -2.42614,1.665352 -3.638741,2.495583c-0.036179,-0.01857 -0.069427,-0.034225 -0.10659,-0.052803c-0.863464,0.484062 -1.731834,0.971039 -2.596306,1.457062c-0.592598,0.224915 -1.074699,0.265991 -1.562668,0.571091c-1.506935,0.951485 -2.349876,2.357697 -3.637764,3.48423c-1.254631,1.094261 -2.998222,2.10247 -4.469948,3.117531c-0.381378,0.502625 -0.760803,1.005264 -1.145119,1.508873c-0.48307,0.401924 -1.078606,0.326622 -1.66143,0.674751c-1.031685,0.610214 -1.58419,1.205742 -2.75473,1.663399c-0.078239,0.193626 -0.08802,0.058685 0,0.206337c0,0.018578 0,0.03521 0,0.051834c-0.15744,-0.070419 -0.311951,-0.140816 -0.468414,-0.208298c-0.354965,0.239594 -1.468796,1.060043 -1.769989,1.142181c-0.297279,0.086052 -0.964195,-0.450813 -1.557777,-0.205353c-0.140823,0.05867 -0.246429,0.348129 -0.62487,0.41658c-0.18972,-0.224922 -0.380402,-0.450806 -0.571091,-0.677681c-0.272842,-0.02935 -0.45179,0 -0.728539,0.052803c-0.122231,-0.260124 -0.242516,-0.520233 -0.364754,-0.779381c0.575012,-1.062973 1.79052,-1.150978 2.181679,-1.768028c0.455704,-0.712883 -0.61216,-3.498901 -0.986687,-4.107155c0.121262,-0.36573 0.243492,-0.728523 0.364761,-1.090347c-0.3237,-0.406807 -0.719742,-0.796989 -1.29866,-0.937813c-0.036179,-0.433197 -0.070404,-0.865425 -0.10659,-1.299606c-0.700172,-0.214157 -1.898079,-1.677094 -1.81691,-2.18364c-1.22628,-1.136314 -2.808525,-0.742218 -4.262642,-0.258163c-2.581642,0.855659 -3.336578,0.747116 -4.421059,3.170334c-0.189713,0.426361 -0.600422,1.346558 -0.5173,1.976318c0.119297,0.948547 0.286518,2.166039 0.673759,2.908264c0.80481,1.558754 2.48386,2.700935 3.118511,4.472878c0.297279,0.819466 -0.86055,2.710709 -0.990608,3.795197c-1.039513,0.442993 -1.559742,1.156853 -2.335213,1.610596c0,0.03521 0,0.068459 0,0.102676c-0.30901,-0.249359 -0.379421,-0.607269 -0.780361,-0.778397c-0.508499,-0.204391 -1.37492,0.385284 -2.079979,0.519257c-0.1633,0.266968 -0.31097,0.641502 -0.25914,0.83316c-1.344601,0.13105 -2.528831,0.638573 -3.742401,0.883041c-0.554459,0.017609 -1.109901,0.033249 -1.665348,0.05085c-0.242523,0.102692 -0.484051,0.20829 -0.72364,0.311951c-0.249363,0.010757 -0.836102,-0.348129 -1.302551,-0.36377c-0.277721,0.085068 -0.556431,0.17308 -0.833172,0.25914c-1.257568,-0.078232 -2.873047,-0.172112 -4.210808,-0.20829c-0.124191,0.25914 -0.07431,0.377457 0.052811,0.62487c0,0.01564 0,0.034225 0,0.05085c-1.327,-0.068466 -3.207493,-0.57206 -4.522762,-0.25914c-1.88929,0.469391 -3.777599,0.936821 -5.667858,1.405228c-0.832191,0.05085 -1.663399,0.103661 -2.498531,0.153542c-1.03754,0.208275 -2.077038,0.41658 -3.115559,0.62487c-1.326031,0.20829 -2.69117,-0.346169 -3.743382,-0.727562c-1.161739,0.034233 -2.322498,0.068443 -3.482279,0.102692c-0.17211,0.17308 -0.25425,1.026779 -0.052801,1.300591c0.587711,1.040474 1.659481,0.213181 2.546431,0.728531c0.27968,0.25914 0.555441,0.520233 0.834141,0.77742c0.488949,0.306084 1.287889,0.214157 1.767059,0.417557c0.480141,0.203407 1.180309,0.600433 1.715219,0.728539c0.79405,0.189713 1.897121,-0.556427 3.069611,-0.365738c1.412079,0.230782 4.976501,0.673782 6.59882,0.313911c2.157242,-0.480156 4.368252,-0.732452 6.862862,-0.727554c0.088009,0.605309 0.174068,1.211609 0.262077,1.815948c0.944641,-0.005875 1.75531,0.31488 2.96106,0.418526c0.05085,-0.121254 0.10659,-0.243484 0.158421,-0.36377c0.57695,0.060631 0.983761,0.728531 1.506931,0.934875c1.483459,0.583801 4.328152,1.550934 5.253239,1.248764c0.4557,-0.151581 1.191071,0.226868 1.401321,-0.103653c0.221989,0.123199 0.08704,-0.012711 0.103661,0.259125c0.274788,0.034241 0.552509,0.069427 0.831211,0.101715c0.248386,1.577332 3.898857,2.368454 4.522758,3.746307c0.509468,1.125549 0.000969,5.230743 0.15451,5.407761c0.000969,0.348114 0.975929,0.679642 1.508881,0.674728c0.016617,0.014679 0.033257,0.036179 0.051819,0.053802c-0.184807,0.249359 -0.401901,0.527069 -0.626823,0.830215l0.001953,0c-0.001953,0 -0.00293,0.001953 -0.006851,0.007828c-0.67083,0.899658 -1.40522,1.970459 -1.553871,2.799713c-0.088974,-0.064545 -0.085068,-0.084106 -0.154495,-0.15451c-0.242523,0.195587 -0.711914,1.161743 -0.204384,1.299622c0,0.048889 0,0.103638 0,0.15451c-0.177979,0.111481 -0.00489,0.020538 -0.210247,0c-0.672783,1.2742 -3.046143,1.75531 -4.938362,2.444717c-2.268711,1.123611 -4.541328,2.252106 -6.81102,3.379623c-0.569141,0.33638 -1.289841,1.0121 -1.76804,1.245819c-0.294338,0.072357 -0.589661,0.13887 -0.88205,0.208298c-0.191669,0.172104 -0.380402,0.346176 -0.571091,0.518265c-1.31918,0.428329 -2.831978,-0.108536 -4.055321,0.522217c-0.749069,0.383331 -2.454517,1.133377 -3.797169,1.091324c0.018581,0.051834 0.03521,0.1017 0.05476,0.152542c-0.187752,0.039124 -0.370621,0.103668 -0.551529,0.167221c0.095829,0.036179 0.05085,0 0.136909,0.094864c-0.142769,-0.060623 -0.08997,-0.02153 -0.14864,-0.089966c-0.28653,0.094864 -0.569141,0.195572 -0.839031,0.244476c-0.067478,-0.15451 -0.236649,-0.239578 -0.44788,-0.295334c0.009781,0.031296 0.019562,0.060638 0.030319,0.091919c-0.05183,0.012726 -0.103661,0.031296 -0.157448,0.048904c0.015648,-0.058685 0.029339,-0.108551 0.04401,-0.167221c-0.881081,-0.172119 -2.56599,0.247391 -3.42165,0.426361c-0.214161,0.045959 -0.86055,-0.215134 -1.194992,-0.25914c-0.21122,-0.026413 -0.71973,0.053787 -0.937801,-0.1017c-0.217087,-0.125168 -0.16037,-0.190689 -0.208286,-0.364761c-1.009193,-0.213181 -1.923512,-0.749069 -2.963022,-0.16037c-0.70603,0.401901 -1.56267,1.600815 -2.33814,1.457077c-0.196548,0.278687 0.293371,1.47171 0.46743,1.924469c0.20927,0.551544 0.765701,1.614502 0.780361,2.288284c-0.071381,0.137878 -0.13983,0.277725 -0.20829,0.413635c0.01956,0.779388 0.034229,1.564636 0.05183,2.343048c-0.67572,0.413635 -1.353411,0.830231 -2.02619,1.245834c-0.650301,0.3853 -1.40328,0.404831 -2.135721,0.779373c-0.315859,0.162338 -0.46059,0.547623 -0.728529,0.728516c-0.466461,0.191696 -0.933891,0.380417 -1.4023,0.572083c-0.845881,0.505569 -1.8316,1.115768 -2.7029,1.611572c-1.59885,0.900635 -3.096991,1.149994 -4.158001,2.597275c0.016621,0.089005 0.0352,0.174072 0.05085,0.261093c0.08703,0.050858 0.17309,0.1017 0.26207,0.157455c0.40192,0.176987 0.690401,-0.121262 0.882071,-0.313904c0.01857,0.016632 0.03618,0.036194 0.05476,0.052811c-0.072371,0.206314 -0.14082,0.41951 -0.210251,0.624863c-1.393499,0.615082 -1.808119,1.3358 -1.092309,2.597275c0.018579,0.2621 0.03423,0.520248 0.05379,0.782333c0.137879,0.072342 0.273809,0.137878 0.414619,0.210236c0.242521,0.418549 -0.22882,0.699203 0.364759,1.140213c1.548981,0.285553 1.934271,-1.004288 2.91119,-1.455093c0.330521,-0.069427 0.66007,-0.135925 0.988651,-0.205353c0.347149,-0.385284 0.693319,-0.759811 1.039499,-1.145111c0.97007,-0.762756 1.939159,-1.525528 2.913141,-2.285339c0.500679,-0.537842 1.003319,-1.074707 1.504,-1.611557c0.370619,-0.264038 0.86348,-0.346191 1.247789,-0.627823c0.944651,-0.676697 1.35243,-2.016418 2.49559,-2.546417c3.427519,-1.583221 7.34593,-2.498535 11.23012,-3.744354c1.2742,-0.404861 2.577728,-1.328964 3.949718,-1.660477c2.71854,-0.661072 5.713821,-0.674744 8.266132,-1.452179c1.059059,-0.440048 2.113228,-0.872269 3.17131,-1.302551c0.784267,-0.251312 1.59885,-0.15451 2.495579,-0.416565c2.108341,-0.615112 4.466042,-1.330917 6.81004,-1.9245c1.15686,-0.293365 2.324463,-0.096817 3.641678,-0.311966c1.12458,-0.18187 2.639343,-0.234665 3.793251,0c0.952469,0.416611 1.903961,0.835129 2.858391,1.246841c2.130829,0.764694 4.26458,1.522568 6.395409,2.28923c0.113441,1.242905 -0.668877,2.383133 -0.468399,3.641678c-0.622917,-0.445923 -1.201828,-1.133392 -2.02523,-1.457062c-2.30098,-0.908463 -2.478951,3.320938 -3.172279,4.418121c-0.585762,0.553482 -1.17836,1.108948 -1.767059,1.667313c-0.685493,0.512421 -1.899063,0.512421 -2.547401,1.086441c-0.03521,0.103638 -0.067467,0.211227 -0.104637,0.314865c-0.685493,0.389221 -1.777809,-0.229797 -2.234482,0.828278c-0.017601,0.174057 -0.03228,0.348129 -0.051826,0.525146c0.019547,0.031281 0.034225,0.067459 0.051826,0.1017c0.978859,0.659088 2.121048,-0.028366 3.482277,0.365723c0.957367,0.270874 2.084877,-0.406784 3.017776,-0.679642c3.134148,-0.905518 5.575951,-1.97728 8.36882,-3.064697c0.919205,-0.358902 1.689789,-0.762772 2.756676,-0.934875c0.449829,-0.077255 0.86348,0.283585 1.141205,0.206329c0.054764,-0.101685 0.10463,-0.206329 0.156456,-0.31488c0.179932,-0.167221 3.577141,-0.575974 4.003502,-0.674759c0.450806,0.019562 0.901611,0.036194 1.35144,0.055756c1.412079,-0.305115 3.275948,-0.782318 4.109116,-1.716202c0.192642,-0.218063 1.505951,-2.132782 1.505951,-2.132782c0.6679,-1.363174 -1.037537,-4.03772 -1.715218,-4.730072c-2.482872,-2.544479 -8.203552,-7.187515 -12.219772,-6.809082c0.151581,-0.440048 -0.92997,-0.40387 -1.089355,-0.936829c-0.051834,-0.172089 0.096809,-0.532944 -0.052811,-0.831192c-0.638565,-0.91922 -1.281044,-1.839417 -1.923523,-2.756683c-0.210251,-0.454712 0.398003,-0.929001 0.1017,-1.350464c-0.16526,-0.239594 -0.277718,-0.580872 -0.15255,-0.833191c-0.141792,-0.193604 -0.06356,-0.131012 -0.261101,-0.154495c0.030319,-0.103653 0.203415,-0.201431 0,-0.311935c0.017609,-0.121262 0.034241,-0.244476 0.053795,-0.365723c0.154503,-0.866425 0.310966,-1.730865 0.468414,-2.599258c0.502632,-1.665359 0.652252,-3.655365 0.983749,-5.718719c0.054771,-1.3358 0.10659,-2.669647 0.158424,-4.002518c0.310966,-1.247803 0.622917,-2.496559 0.933891,-3.743378c0.035194,-0.779381 0.071388,-1.558762 0.105606,-2.338135c0.258171,-1.10601 1.804214,-2.118118 2.494614,-3.069611c0.837067,-1.151955 1.269295,-3.219231 1.353401,-5.042015c0.397995,0.042046 0.682564,-0.385292 1.038513,-0.520241c0.275772,-0.051834 0.552521,-0.102684 0.833176,-0.15451c1.02874,-0.610214 0.58477,-3.215309 0.206337,-4.315445c0.812622,-0.668869 1.48542,-1.580269 2.291199,-2.287285c0.361824,-0.173096 0.725601,-0.346169 1.090355,-0.519272c1.098167,-0.83316 2.507317,-1.519638 3.482277,-2.496559c1.455101,-1.592979 2.912163,-3.188904 4.366287,-4.781891c0.450821,-0.122238 0.899666,-0.2435 1.352432,-0.362801c1.109909,-0.574028 2.21785,-1.145111 3.32679,-1.716209c0.156464,-0.242523 0.312927,-0.484047 0.46743,-0.728531c0.710938,-0.588692 1.420883,-1.176399 2.131813,-1.769012c0.172104,-0.310966 0.348129,-0.62291 0.520241,-0.933884c0.361816,-0.378441 1.06102,-1.166626 0.255226,-1.507912l-0.000008,0z" id="svg_20" fill="#e5e5e5"/>
  </g>
 </g>

</svg>